<?xml version="1.0" encoding="utf-8"?>
<!-- Generator: Adobe Illustrator 22.1.0, SVG Export Plug-In . SVG Version: 6.00 Build 0)  -->
<svg version="1.1" id="Layer_1" xmlns="http://www.w3.org/2000/svg" xmlns:xlink="http://www.w3.org/1999/xlink" x="0px" y="0px"
	 viewBox="0 0 136.3 136.3" style="enable-background:new 0 0 136.3 136.3;" xml:space="preserve">
<style type="text/css">
	.st0{fill:none;stroke:#000000;stroke-miterlimit:10;}
	.st1{fill:none;stroke:#FFFFFF;stroke-width:6;stroke-miterlimit:10;}
	.st2{fill:#40C0CB;stroke:#0190A3;stroke-width:2;stroke-miterlimit:10;}
	.st3{fill:#0190A3;}
	.st4{fill:#FFFFFF;}
</style>
<path class="st0" d="M-486.2,392.1"/>
<path class="st0" d="M-488.4,392.7"/>
<path class="st0" d="M-24.4,526.3"/>
<path class="st1" d="M-24.4,526.3"/>
<g>
	<path class="st2" d="M116.7,135.3h-97C9.4,135.3,1,127,1,116.7v-97C1,9.4,9.4,1,19.7,1h97c10.3,0,18.7,8.4,18.7,18.7v97
		C135.3,127,127,135.3,116.7,135.3z"/>
	<polygon class="st3" points="69.4,135.3 44.9,113.2 45.6,100.9 20.5,77.5 38.6,65.6 46.6,75.6 47.4,60.3 42,55.7 53.3,43.5 
		59.1,47.9 69,45.7 61,40 69.4,19.4 92.3,44.3 107.5,40.8 135.3,69.5 135.3,116.3 135.3,119.6 134.6,121.8 133,125.7 130.7,129 
		127.2,132.1 121.9,134.6 117.9,135.3 110.8,135.3 	"/>
	<g>
		<path class="st4" d="M69,45.7L69,45.7c-12.9,0-23.3,10.4-23.3,23.3v0c0,12.9,10.4,23.3,23.3,23.3h0c12.9,0,23.3-10.4,23.3-23.3v0
			C92.3,56.1,81.9,45.7,69,45.7z"/>
		<polygon class="st4" points="61,40 77.7,40 69.3,20 		"/>
		<polygon class="st4" points="86.4,45.6 96.1,59.2 107.5,40.8 		"/>
		<polygon class="st4" points="98.4,69.5 94.3,85.7 115.7,82.6 		"/>
		<polygon class="st4" points="42,55.7 53.3,43.5 33,36 		"/>
		<polygon class="st4" points="41.7,82 38.6,65.6 20.5,77.5 		"/>
		<polygon class="st4" points="61.1,98.8 46.2,91.5 44.9,113.2 		"/>
		<polygon class="st4" points="88.2,93.6 72.8,100 88.2,115.2 		"/>
	</g>
</g>
</svg>
