<?xml version="1.0" encoding="utf-8"?>
<!-- Generator: Adobe Illustrator 22.1.0, SVG Export Plug-In . SVG Version: 6.00 Build 0)  -->
<svg version="1.1" id="Layer_1" xmlns="http://www.w3.org/2000/svg" xmlns:xlink="http://www.w3.org/1999/xlink" x="0px" y="0px"
	 viewBox="0 0 136.3 136.3" style="enable-background:new 0 0 136.3 136.3;" xml:space="preserve">
<style type="text/css">
	.st0{fill:none;stroke:#000000;stroke-miterlimit:10;}
	.st1{fill:none;stroke:#FFFFFF;stroke-width:6;stroke-miterlimit:10;}
	.st2{fill:#F15F24;stroke:#DE2C05;stroke-width:2;stroke-miterlimit:10;}
	.st3{fill:#DE2C05;}
	.st4{fill:#FFFFFF;}
</style>
<path class="st0" d="M-486.2,392.1"/>
<path class="st0" d="M-488.4,392.7"/>
<path class="st0" d="M-24.4,526.3"/>
<path class="st1" d="M-24.4,526.3"/>
<g>
	<path class="st2" d="M116.7,135.3h-97C9.4,135.3,1,127,1,116.7v-97C1,9.4,9.4,1,19.7,1h97c10.3,0,18.7,8.4,18.7,18.7v97
		C135.3,127,127,135.3,116.7,135.3z"/>
	<polygon class="st3" points="67.5,135.3 21.9,92.7 99.4,53.7 135.3,88.9 135.3,109 135.3,117.4 134.7,121.6 133.8,124.2 131.5,128 
		129.3,130.4 125.2,133.3 121.8,134.6 118.9,135.3 	"/>
	<path class="st4" d="M29,95.9h77.6c0,0,12.3-1.9,12.7-15.3S104,67.6,104,67.6s2.6-17.9-17.2-17.9c0,0-3.7-11.9-12.7-7.8
		c0,0-14.9-11.9-22.8,7.1c0,0-21.3-6.7-22.4,18.1c0,0-13.1,1.3-11.6,15.1S29,95.9,29,95.9z"/>
</g>
</svg>
