<?xml version="1.0" encoding="utf-8"?>
<!-- Generator: Adobe Illustrator 22.1.0, SVG Export Plug-In . SVG Version: 6.00 Build 0)  -->
<svg version="1.1" id="Layer_1" xmlns="http://www.w3.org/2000/svg" xmlns:xlink="http://www.w3.org/1999/xlink" x="0px" y="0px"
	 viewBox="0 0 136.3 136.3" style="enable-background:new 0 0 136.3 136.3;" xml:space="preserve">
<style type="text/css">
	.st0{fill:none;stroke:#000000;stroke-miterlimit:10;}
	.st1{fill:none;stroke:#FFFFFF;stroke-width:6;stroke-miterlimit:10;}
	.st2{fill:#FFCB27;stroke:#FFA41D;stroke-width:2;stroke-miterlimit:10;}
	.st3{fill:#FFA41D;}
	.st4{fill:#FFFFFF;}
</style>
<path class="st0" d="M-486.2,392.1"/>
<path class="st0" d="M-488.4,392.7"/>
<path class="st0" d="M-24.4,526.3"/>
<path class="st1" d="M-24.4,526.3"/>
<g>
	<path class="st2" d="M116.7,135.3h-97C9.4,135.3,1,127,1,116.7v-97C1,9.4,9.4,1,19.7,1h97c10.3,0,18.7,8.4,18.7,18.7v97
		C135.3,127,127,135.3,116.7,135.3z"/>
	<polygon class="st3" points="41.3,121.3 56.8,135.3 87.3,135.3 110.5,135.3 118.8,135.2 124.1,133.8 127,132.2 130.3,129.4 
		132.9,125.9 134.5,122.1 135.3,118.2 135.3,93 135.3,65.3 103.3,35 40.3,69 50.3,78.1 44.3,89.1 54.2,97.8 51.9,100.1 43.3,93 
		35.3,105.3 43.8,112.7 	"/>
	<g>
		<path class="st4" d="M43.3,69.8h65.3c0,0,10.4-1.6,10.7-12.9s-12.9-11-12.9-11s2.2-15.1-14.4-15.1c0,0-3.1-10-10.7-6.6
			c0,0-12.6-10-19.1,6c0,0-17.9-5.6-18.8,15.2c0,0-11,1.1-9.7,12.7S43.3,69.8,43.3,69.8z"/>
		<g>
			<path class="st4" d="M106,85.6l0.1-0.1c0,0.3-0.1,0.6-0.1,0.9c-0.4,2-2.1,3.5-4.2,3.5h0c-2.3,0-4.2-1.9-4.2-4.2v0
				c0-1.4,0.7-2.7,1.8-3.5"/>
			<polyline class="st4" points="105.9,86.3 107.3,76.8 99.3,82.1 			"/>
		</g>
		<g>
			<path class="st4" d="M88,85.6l0.1-0.1c0,0.3-0.1,0.6-0.1,0.9c-0.4,2-2.1,3.5-4.2,3.5h0c-2.3,0-4.2-1.9-4.2-4.2v0
				c0-1.4,0.7-2.7,1.8-3.5"/>
			<polyline class="st4" points="87.9,86.3 89.3,76.8 81.3,82.1 			"/>
		</g>
		<g>
			<path class="st4" d="M70,85.6l0.1-0.1c0,0.3-0.1,0.6-0.1,0.9c-0.4,2-2.1,3.5-4.2,3.5h0c-2.3,0-4.2-1.9-4.2-4.2v0
				c0-1.4,0.7-2.7,1.8-3.5"/>
			<polyline class="st4" points="69.9,86.3 71.3,76.8 63.3,82.1 			"/>
		</g>
		<g>
			<path class="st4" d="M51,85.6l0.1-0.1c0,0.3-0.1,0.6-0.1,0.9c-0.4,2-2.1,3.5-4.2,3.5h0c-2.3,0-4.2-1.9-4.2-4.2v0
				c0-1.4,0.7-2.7,1.8-3.5"/>
			<polyline class="st4" points="50.9,86.3 52.3,76.8 44.3,82.1 			"/>
		</g>
		<g>
			<path class="st4" d="M97,101.8l0.1-0.1c0,0.3-0.1,0.6-0.1,0.9c-0.4,2-2.1,3.5-4.2,3.5h0c-2.3,0-4.2-1.9-4.2-4.2v0
				c0-1.4,0.7-2.7,1.8-3.5"/>
			<polyline class="st4" points="96.9,102.6 98.3,93 90.3,98.3 			"/>
		</g>
		<g>
			<path class="st4" d="M78,101.8l0.1-0.1c0,0.3-0.1,0.6-0.1,0.9c-0.4,2-2.1,3.5-4.2,3.5h0c-2.3,0-4.2-1.9-4.2-4.2v0
				c0-1.4,0.7-2.7,1.8-3.5"/>
			<polyline class="st4" points="77.9,102.6 79.3,93 71.3,98.3 			"/>
		</g>
		<g>
			<path class="st4" d="M60,101.8l0.1-0.1c0,0.3-0.1,0.6-0.1,0.9c-0.4,2-2.1,3.5-4.2,3.5h0c-2.3,0-4.2-1.9-4.2-4.2v0
				c0-1.4,0.7-2.7,1.8-3.5"/>
			<polyline class="st4" points="59.9,102.6 61.3,93 53.3,98.3 			"/>
		</g>
		<g>
			<path class="st4" d="M42,101.8l0.1-0.1c0,0.3-0.1,0.6-0.1,0.9c-0.4,2-2.1,3.5-4.2,3.5h0c-2.3,0-4.2-1.9-4.2-4.2v0
				c0-1.4,0.7-2.7,1.8-3.5"/>
			<polyline class="st4" points="41.9,102.6 43.3,93 35.3,98.3 			"/>
		</g>
		<g>
			<path class="st4" d="M48,117.8l0.1-0.1c0,0.3-0.1,0.6-0.1,0.9c-0.4,2-2.1,3.5-4.2,3.5h0c-2.3,0-4.2-1.9-4.2-4.2v0
				c0-1.4,0.7-2.7,1.8-3.5"/>
			<polyline class="st4" points="47.9,118.6 49.3,109 41.3,114.3 			"/>
		</g>
		<g>
			<path class="st4" d="M68,117.8l0.1-0.1c0,0.3-0.1,0.6-0.1,0.9c-0.4,2-2.1,3.5-4.2,3.5h0c-2.3,0-4.2-1.9-4.2-4.2v0
				c0-1.4,0.7-2.7,1.8-3.5"/>
			<polyline class="st4" points="67.9,118.6 69.3,109 61.3,114.3 			"/>
		</g>
	</g>
</g>
</svg>
