<?xml version="1.0" encoding="utf-8"?>
<!-- Generator: Adobe Illustrator 22.1.0, SVG Export Plug-In . SVG Version: 6.00 Build 0)  -->
<svg version="1.1" id="Layer_1" xmlns="http://www.w3.org/2000/svg" xmlns:xlink="http://www.w3.org/1999/xlink" x="0px" y="0px"
	 viewBox="0 0 136.3 136.3" style="enable-background:new 0 0 136.3 136.3;" xml:space="preserve">
<style type="text/css">
	.st0{fill:none;stroke:#000000;stroke-miterlimit:10;}
	.st1{fill:none;stroke:#FFFFFF;stroke-width:6;stroke-miterlimit:10;}
	.st2{fill:#FBCD26;stroke:#FFA41D;stroke-width:2;stroke-miterlimit:10;}
	.st3{fill:#FFA41D;}
	.st4{fill:#FFFFFF;}
</style>
<path class="st0" d="M-486.2,392.1"/>
<path class="st0" d="M-488.4,392.7"/>
<path class="st0" d="M-24.4,526.3"/>
<path class="st1" d="M-24.4,526.3"/>
<g>
	<path class="st2" d="M116.7,135.3h-97C9.4,135.3,1,127,1,116.7v-97C1,9.4,9.4,1,19.7,1h97c10.3,0,18.7,8.4,18.7,18.7v97
		C135.3,127,127,135.3,116.7,135.3z"/>
	<polygon class="st3" points="19.8,72.9 50.5,104.6 48.1,107.6 78.1,135.3 114.5,135.3 120.6,134.9 124,133.8 127.4,131.9 
		129.7,130.1 132.1,127.1 133.6,124.4 134.7,121.5 135.2,118.9 135.3,115.3 135.3,63.5 97.9,34.9 	"/>
	<g>
		<path class="st4" d="M28.5,77.9h77.6c0,0,12.3-1.9,12.7-15.3s-15.3-13.1-15.3-13.1s2.6-17.9-17.2-17.9c0,0-3.7-11.9-12.7-7.8
			c0,0-14.9-11.9-22.8,7.1c0,0-21.3-6.7-22.4,18.1c0,0-13.1,1.3-11.6,15.1S28.5,77.9,28.5,77.9z"/>
		<polygon class="st4" points="55.1,84.9 44.5,96.4 54.5,96.4 49.8,105.3 61.8,93.4 50.4,93.4 		"/>
		<polygon class="st4" points="82.2,81.5 63.3,100.9 79.8,100.9 71.3,116.8 91.3,95.6 73.8,95.5 		"/>
	</g>
</g>
</svg>
