<?xml version="1.0" encoding="utf-8"?>
<!-- Generator: Adobe Illustrator 22.1.0, SVG Export Plug-In . SVG Version: 6.00 Build 0)  -->
<svg version="1.1" id="Layer_1" xmlns="http://www.w3.org/2000/svg" xmlns:xlink="http://www.w3.org/1999/xlink" x="0px" y="0px"
	 viewBox="0 0 136.3 136.3" style="enable-background:new 0 0 136.3 136.3;" xml:space="preserve">
<style type="text/css">
	.st0{fill:none;stroke:#000000;stroke-miterlimit:10;}
	.st1{fill:none;stroke:#FFFFFF;stroke-width:6;stroke-miterlimit:10;}
	.st2{fill:#067291;stroke:#012F51;stroke-width:2;stroke-miterlimit:10;}
	.st3{fill:#012F51;}
	.st4{fill:#FFFFFF;}
</style>
<path class="st0" d="M-486.2,392.1"/>
<path class="st0" d="M-488.4,392.7"/>
<path class="st0" d="M-24.4,526.3"/>
<path class="st1" d="M-24.4,526.3"/>
<g>
	<path class="st2" d="M116.7,135.3h-97C9.4,135.3,1,127,1,116.7v-97C1,9.4,9.4,1,19.7,1h97c10.3,0,18.7,8.4,18.7,18.7v97
		C135.3,127,127,135.3,116.7,135.3z"/>
	<path class="st3" d="M26.3,33.2l11.2,10.6l-8.6,23.8l36.9,34.9l5.3,9.6l23.6,23.1h23.5c0,0,6.9-0.9,9.3-3.5l4.4-4l2.5-5.3l0.9-3.5
		V111V99.8V87.9v-12v-1.1L100,39.5l-43.9-9.6L44,19l-5.6,12.9l-9.5-10.5L26.3,33.2z"/>
	<g>
		<path class="st4" d="M32,28.8l0-0.1c0.1,0.2,0.2,0.5,0.3,0.7c0.6,1.5,0.1,3.3-1.3,4.3l0,0c-1.6,1.1-3.8,0.6-4.8-1l0,0
			c-0.6-1-0.7-2.2-0.3-3.2"/>
		<polyline class="st4" points="32.3,29.3 28.9,22.1 25.9,29.4 		"/>
	</g>
	<g>
		<path class="st4" d="M49.2,31.4l0-0.2c0.2,0.3,0.4,0.9,0.5,1.2c1.1,2.7,0.1,5.9-2.5,7.5l0,0c-2.9,1.8-6.7,0.9-8.5-2l0,0
			c-1.1-1.8-1.2-3.9-0.4-5.7"/>
		<polyline class="st4" points="49.7,32.4 44,19.5 38.3,32.2 		"/>
	</g>
	<path class="st4" d="M90.6,66.8c10.8-19.6,21.1,0,21.1,0c-5.3-39.5-38.1-39-38.1-39c-3.8-9.1-7.3,0-7.3,0
		c-8.1,0.1-13.1,3.6-13.1,3.6c1.3,15.9-15,10.7-15,10.7c-9,5.5-9.1,24.6-9.1,24.6c11.2-18.6,20.5,0,20.5,0
		c5.7-14.4,15.8-6.3,15.8-6.3v41.8c0,0,0,8.8,9.3,11s13.6-5.5,13.6-5.5s1.4-3.9,1-8.1s-4.8-4.1-4.8-4.1s-3.5-0.3-4.1,4.6
		s-2.9,3.9-2.9,3.9s-2.6,0.4-2.9-4s0-39.4,0-39.4C84.6,53,90.6,66.8,90.6,66.8"/>
</g>
</svg>
