<?xml version="1.0" encoding="utf-8"?>
<!-- Generator: Adobe Illustrator 22.1.0, SVG Export Plug-In . SVG Version: 6.00 Build 0)  -->
<svg version="1.1" id="Layer_1" xmlns="http://www.w3.org/2000/svg" xmlns:xlink="http://www.w3.org/1999/xlink" x="0px" y="0px"
	 viewBox="0 0 506 506" style="enable-background:new 0 0 506 506;" xml:space="preserve">
<style type="text/css">
	.st0{fill:none;stroke:#000000;stroke-width:0.25;stroke-miterlimit:10;}
	.st1{fill:#FFFFFF;stroke:#000000;stroke-width:4;stroke-miterlimit:10;}
	.st2{fill:#FF0000;stroke:#FF0000;stroke-miterlimit:10;}
</style>
<g>
	<path class="st0" d="M253,504c-67,0-130.1-26.1-177.5-73.5S2,320,2,253S28.1,122.9,75.5,75.5S186,2,253,2s130.1,26.1,177.5,73.5
		S504,186,504,253s-26.1,130.1-73.5,177.5S320,504,253,504z"/>
	<path class="st0" d="M253,4c33.6,0,66.2,6.6,96.9,19.6C379.6,36.1,406.2,54.1,429,77c22.9,22.9,40.8,49.5,53.4,79.1
		c13,30.7,19.6,63.3,19.6,96.9s-6.6,66.2-19.6,96.9c-12.5,29.7-30.5,56.3-53.4,79.1s-49.5,40.8-79.1,53.4
		c-30.7,13-63.3,19.6-96.9,19.6s-66.2-6.6-96.9-19.6C126.4,469.9,99.8,451.9,77,429c-22.9-22.9-40.8-49.5-53.4-79.1
		C10.6,319.2,4,286.6,4,253s6.6-66.2,19.6-96.9C36.1,126.4,54.1,99.8,77,77c22.9-22.9,49.5-40.8,79.1-53.4C186.8,10.6,219.4,4,253,4
		 M253,0L253,0C113.3,0,0,113.3,0,253l0,0c0,139.7,113.3,253,253,253l0,0c139.7,0,253-113.3,253-253l0,0C506,113.3,392.7,0,253,0
		L253,0z"/>
</g>
<path class="st1" d="M253,256.2L253,256.2c-1.7,0-3.2-1.4-3.2-3.2l0,0c0-1.7,1.4-3.2,3.2-3.2l0,0c1.7,0,3.2,1.4,3.2,3.2l0,0
	C256.2,254.7,254.7,256.2,253,256.2z"/>
<g>
	<path class="st2" d="M253,280L253,280c-11.3,0-20.5-9.2-20.5-20.5v0c0-11.3,9.2-20.5,20.5-20.5h0c11.3,0,20.5,9.2,20.5,20.5v0
		C273.5,270.8,264.3,280,253,280z"/>
	<polyline class="st2" points="232.5,259.5 253,86 273.5,259.5 	"/>
</g>
</svg>
