<?xml version="1.0" encoding="utf-8"?>
<!-- Generator: Adobe Illustrator 22.1.0, SVG Export Plug-In . SVG Version: 6.00 Build 0)  -->
<svg version="1.1" id="Layer_1" xmlns="http://www.w3.org/2000/svg" xmlns:xlink="http://www.w3.org/1999/xlink" x="0px" y="0px"
	 viewBox="0 0 506 506" style="enable-background:new 0 0 506 506;" xml:space="preserve">
<style type="text/css">
	.st0{fill:#FFFFFF;}
	.st1{font-family:'MyriadPro-Regular';}
	.st2{font-size:50px;}
	.st3{fill:#FFFFFF;stroke:#000000;stroke-width:4;stroke-miterlimit:10;}
</style>
<g>
	<path class="st0" d="M253,504c-67,0-130.1-26.1-177.5-73.5C28.1,383.1,2,320,2,253c0-67,26.1-130.1,73.5-177.5S186,2,253,2
		s130.1,26.1,177.5,73.5C477.9,122.9,504,186,504,253c0,67-26.1,130.1-73.5,177.5C383.1,477.9,320,504,253,504z"/>
	<path d="M253,4c33.6,0,66.2,6.6,96.9,19.6c29.7,12.5,56.3,30.5,79.1,53.4c22.9,22.9,40.8,49.5,53.4,79.1
		c13,30.7,19.6,63.3,19.6,96.9c0,33.6-6.6,66.2-19.6,96.9c-12.5,29.7-30.5,56.3-53.4,79.1s-49.5,40.8-79.1,53.4
		c-30.7,13-63.3,19.6-96.9,19.6c-33.6,0-66.2-6.6-96.9-19.6c-29.7-12.5-56.3-30.5-79.1-53.4c-22.9-22.9-40.8-49.5-53.4-79.1
		C10.6,319.2,4,286.6,4,253c0-33.6,6.6-66.2,19.6-96.9c12.5-29.7,30.5-56.3,53.4-79.1c22.9-22.9,49.5-40.8,79.1-53.4
		C186.8,10.6,219.4,4,253,4 M253,0L253,0C113.3,0,0,113.3,0,253v0c0,139.7,113.3,253,253,253h0c139.7,0,253-113.3,253-253v0
		C506,113.3,392.7,0,253,0L253,0z"/>
</g>
<text transform="matrix(1 0 0 1 236.5503 68)" class="st1 st2">N</text>
<text transform="matrix(1 0 0 1 240.675 477)" class="st1 st2">S</text>
<text transform="matrix(1 0 0 1 460 267.675)" class="st1 st2">E</text>
<text transform="matrix(1 0 0 1 22 267.675)" class="st1 st2">O</text>
<path class="st3" d="M253,256.2L253,256.2c-1.7,0-3.2-1.4-3.2-3.2l0,0c0-1.7,1.4-3.2,3.2-3.2l0,0c1.7,0,3.2,1.4,3.2,3.2l0,0
	C256.2,254.7,254.7,256.2,253,256.2z"/>
</svg>