<?xml version="1.0" encoding="utf-8"?>
<!-- Generator: Adobe Illustrator 22.1.0, SVG Export Plug-In . SVG Version: 6.00 Build 0)  -->
<svg version="1.1" id="Layer_1" xmlns="http://www.w3.org/2000/svg" xmlns:xlink="http://www.w3.org/1999/xlink" x="0px" y="0px"
	 viewBox="0 0 136.3 136.3" style="enable-background:new 0 0 136.3 136.3;" xml:space="preserve">
<style type="text/css">
	.st0{fill:none;stroke:#000000;stroke-miterlimit:10;}
	.st1{fill:none;stroke:#FFFFFF;stroke-width:6;stroke-miterlimit:10;}
	.st2{fill:#067291;stroke:#012F51;stroke-width:2;stroke-miterlimit:10;}
	.st3{fill:#012F51;}
	.st4{fill:#FFFFFF;}
</style>
<path class="st0" d="M-486.2,392.1"/>
<path class="st0" d="M-488.4,392.7"/>
<path class="st0" d="M-24.4,526.3"/>
<path class="st1" d="M-24.4,526.3"/>
<g>
	<path class="st2" d="M116.7,135.3h-97C9.4,135.3,1,127,1,116.7v-97C1,9.4,9.4,1,19.7,1h97c10.3,0,18.7,8.4,18.7,18.7v97
		C135.3,127,127,135.3,116.7,135.3z"/>
	<polygon class="st3" points="50.1,108 79.5,135.3 116.7,135.3 120.6,134.9 124.1,133.8 127.8,131.6 131.1,128.6 133,125.7 
		134.4,122.5 135.2,119.1 135.3,116.3 135.3,104.7 135.3,91.4 135.3,90.3 69.3,23.8 	"/>
	<g>
		<path class="st4" d="M66,23.8h3.3c0,0,1,12.3,13.5,29.8S95.3,71,95.3,71s5.8,10.3,2.3,25c0,0-3.8,12.3-21.8,17.2c0,0-6,1.7-16,0
			C49.8,111.5,42,98,42,98s-4.5-12.3,0-25.8c0,0,3.5-8.8,8-14s9.8-14,15.5-31.8L66,23.8z"/>
		<path class="st3" d="M74.2,48.2c0,0,2.8,11.8,6.7,18.3c3.8,6.5,5.3,11.7,6.2,17.7s-2.1,13.4-3.3,14.5c-1.4,1.3-4.2,5.5-9.5,8.5
			c0,0,9.7-0.8,16-9.7c6.3-8.8-0.2-24.1-0.2-24.1S82.3,63.2,74.2,48.2z"/>
	</g>
</g>
</svg>
