<?xml version="1.0" encoding="utf-8"?>
<!-- Generator: Adobe Illustrator 22.1.0, SVG Export Plug-In . SVG Version: 6.00 Build 0)  -->
<svg version="1.1" id="Layer_1" xmlns="http://www.w3.org/2000/svg" xmlns:xlink="http://www.w3.org/1999/xlink" x="0px" y="0px"
	 viewBox="0 0 136.3 136.3" style="enable-background:new 0 0 136.3 136.3;" xml:space="preserve">
<style type="text/css">
	.st0{fill:none;stroke:#000000;stroke-miterlimit:10;}
	.st1{fill:none;stroke:#FFFFFF;stroke-width:6;stroke-miterlimit:10;}
	.st2{fill:#F15F24;stroke:#DE2B0B;stroke-width:2;stroke-miterlimit:10;}
	.st3{fill:#DE2B0B;}
	.st4{fill:none;stroke:#FFFFFF;stroke-width:7;stroke-miterlimit:10;}
</style>
<path class="st0" d="M-486.2,392.1"/>
<path class="st0" d="M-488.4,392.7"/>
<path class="st0" d="M-24.4,526.3"/>
<path class="st1" d="M-24.4,526.3"/>
<g>
	<path class="st2" d="M116.7,135.3h-97C9.4,135.3,1,127,1,116.7v-97C1,9.4,9.4,1,19.7,1h97c10.3,0,18.7,8.4,18.7,18.7v97
		C135.3,127,127,135.3,116.7,135.3z"/>
	<polygon class="st3" points="74.2,20.4 135.3,81.4 135.3,113.8 135.3,118.4 134.6,121.9 132.7,126.3 130.4,129.3 128.1,131.4 
		124.9,133.4 121.6,134.7 118,135.3 104.1,135.3 77.1,135.3 50.4,107.1 51.2,88.1 59.8,76.5 59.8,42 60.1,25.3 	"/>
	<g>
		<path class="st4" d="M77.8,79.2L76,78.6v-0.5v-2.4V74V30c0,0,0.3-8-8-8s-8.2,8-8.2,8v48.7l0,0c-0.2,0.1,0.2-0.1,0,0
			c-5.9,3-9.9,9.1-9.9,16.2v0c0,10,8.1,18.1,18.1,18.1h0c10,0,18.1-8.1,18.1-18.1v0c0-6.9-4.5-13.7-10.2-16.8"/>
		<path class="st4" d="M71,104.4c0,0,7-2.5,5-13"/>
	</g>
</g>
</svg>
