<?xml version="1.0" encoding="utf-8"?>
<!-- Generator: Adobe Illustrator 22.1.0, SVG Export Plug-In . SVG Version: 6.00 Build 0)  -->
<svg version="1.1" id="Layer_1" xmlns="http://www.w3.org/2000/svg" xmlns:xlink="http://www.w3.org/1999/xlink" x="0px" y="0px"
	 viewBox="0 0 136.3 136.3" style="enable-background:new 0 0 136.3 136.3;" xml:space="preserve">
<style type="text/css">
	.st0{fill:none;stroke:#000000;stroke-miterlimit:10;}
	.st1{fill:none;stroke:#FFFFFF;stroke-width:6;stroke-miterlimit:10;}
	.st2{fill:#40C0CB;stroke:#0190A3;stroke-width:2;stroke-miterlimit:10;}
	.st3{fill:#0190A3;}
	.st4{fill:none;stroke:#FFFFFF;stroke-width:5;stroke-miterlimit:10;}
</style>
<path class="st0" d="M-486.2,392.1"/>
<path class="st0" d="M-488.4,392.7"/>
<path class="st0" d="M-24.4,526.3"/>
<path class="st1" d="M-24.4,526.3"/>
<g>
	<path class="st2" d="M116.7,135.3h-97C9.4,135.3,1,127,1,116.7v-97C1,9.4,9.4,1,19.7,1h97c10.3,0,18.7,8.4,18.7,18.7v97
		C135.3,127,127,135.3,116.7,135.3z"/>
	<polygon class="st3" points="107.7,43.8 135.3,78.8 135.3,100.6 135.3,116.7 134.8,120.9 133.9,123.8 132.7,126.2 131.5,128 
		129.9,129.9 128.2,131.4 125.5,133.1 124.1,133.8 121.2,134.8 118.7,135.2 109.9,135.3 86.6,135.3 28,91 50.5,77.7 32.3,69.5 
		33.4,65.7 29.7,55.8 39.9,51.1 39.4,39.4 49.4,48 49,37.4 51.9,35.6 68.2,47.6 68,21.7 76.2,29.3 77.9,28 84.5,34.7 87.3,37.3 
		97,45.3 97.3,38.7 104,46.3 	"/>
	<g>
		<line class="st4" x1="68" y1="22.2" x2="68" y2="114"/>
		<line class="st4" x1="28.2" y1="90.8" x2="107.7" y2="44.2"/>
		<line class="st4" x1="28.2" y1="44.2" x2="107.7" y2="90.8"/>
		<polyline class="st4" points="104.3,69.2 85.5,77.8 87,98.7 		"/>
		<polyline class="st4" points="107,78.8 96.7,84.4 96.7,96.8 		"/>
		<polyline class="st4" points="84.5,100.2 67.9,87 51.2,101 		"/>
		<polyline class="st4" points="77.7,107.5 67.8,98.7 58.2,107.5 		"/>
		<polyline class="st4" points="87.4,36.6 85.7,57.3 104.6,66.2 		"/>
		<polyline class="st4" points="97.1,39.1 96.9,50.8 107.8,56.9 		"/>
		<polyline class="st4" points="51.2,35 67.8,48 84.5,35 		"/>
		<polyline class="st4" points="58.2,28 67.8,36.6 77.7,28 		"/>
		<polyline class="st4" points="49,36.6 49.8,56.9 32.3,66.2 		"/>
		<polyline class="st4" points="39.3,39.1 39.9,51.1 29,56.2 		"/>
		<polyline class="st4" points="31.5,69.2 50.5,77.7 48.8,98.7 		"/>
		<polyline class="st4" points="29,78.8 39.9,83.9 39.2,96.8 		"/>
	</g>
</g>
</svg>
