<?xml version="1.0" encoding="utf-8"?>
<!-- Generator: Adobe Illustrator 22.1.0, SVG Export Plug-In . SVG Version: 6.00 Build 0)  -->
<svg version="1.1" id="Layer_1" xmlns="http://www.w3.org/2000/svg" xmlns:xlink="http://www.w3.org/1999/xlink" x="0px" y="0px"
	 viewBox="0 0 136.3 136.3" style="enable-background:new 0 0 136.3 136.3;" xml:space="preserve">
<style type="text/css">
	.st0{fill:none;stroke:#000000;stroke-miterlimit:10;}
	.st1{fill:none;stroke:#FFFFFF;stroke-width:6;stroke-miterlimit:10;}
	.st2{fill:#F15F24;stroke:#DE2C05;stroke-width:2;stroke-miterlimit:10;}
	.st3{fill:#DE2C05;}
	.st4{fill:none;stroke:#FFFFFF;stroke-width:7;stroke-linecap:round;stroke-miterlimit:10;}
</style>
<path class="st0" d="M-486.2,392.1"/>
<path class="st0" d="M-488.4,392.7"/>
<path class="st0" d="M-24.4,526.3"/>
<path class="st1" d="M-24.4,526.3"/>
<g>
	<path class="st2" d="M116.7,135.3h-97C9.4,135.3,1,127,1,116.7v-97C1,9.4,9.4,1,19.7,1h97c10.3,0,18.7,8.4,18.7,18.7v97
		C135.3,127,127,135.3,116.7,135.3z"/>
	<polygon class="st3" points="135.3,82.1 95.3,43.5 82.3,44 75.8,51.3 56.3,31.3 46.7,31.3 39.4,40.2 37.6,44.9 41.1,49.1 
		20.8,53.7 32.8,65.1 21.3,69 36.5,83.7 88.8,135.3 104.3,135.3 111.4,135.3 117.9,135.3 121.1,134.8 124.7,133.5 127.4,132 
		130.1,129.6 132.3,126.9 134.2,123.1 134.9,120.5 135.3,116.7 135.3,104.8 	"/>
	<g>
		<path class="st4" d="M23.2,51.3H49c0,0,8.2-0.8,8.5-9.2s-7.2-9.8-7.2-9.8s-9.8-2-10,10.7"/>
		<path class="st4" d="M23.2,66.4h66c0,0,9.5-4,8.8-11.9s-6.2-9-6.2-9s-5.7-3.7-11.5,2.7c0,0-3,5.2-0.8,9.3"/>
		<path class="st4" d="M38.8,81.2h61.3c0,0,7.7,0.5,8.8,8.2c0,0,2,6.2-2.5,10.7c0,0-5.8,4.5-12.5,0c0,0-4.2-2.8-3.7-10.8"/>
	</g>
</g>
</svg>
